<svg xmlns="http://www.w3.org/2000/svg" width="1200" height="650" viewBox="0 0 1200 650">
  <rect width="1200" height="650" fill="#f2f4f1"/><text x="72" y="62" font-family="Arial" font-size="12" font-weight="700" fill="#247483">CONFIGURATIE · WERKSTUK</text><text x="72" y="105" font-family="Arial" font-size="36" font-weight="700" fill="#183038">Configureerbaar veld toevoegen</text>
  <rect x="72" y="142" width="1056" height="432" rx="18" fill="white" stroke="#dce3e0"/><text x="104" y="184" font-family="Arial" font-size="20" font-weight="700" fill="#183038">Velddefinitie</text>
  <g font-family="Arial"><text x="104" y="228" font-size="12" font-weight="700" fill="#183038">Veldlabel</text><rect x="104" y="240" width="300" height="45" rx="8" fill="#fbfcfb" stroke="#cad6d2"/><text x="120" y="268" font-size="14" fill="#183038">Werkstatus</text>
  <text x="450" y="228" font-size="12" font-weight="700" fill="#183038">Technische sleutel</text><rect x="450" y="240" width="300" height="45" rx="8" fill="#fbfcfb" stroke="#cad6d2"/><text x="466" y="268" font-size="14" fill="#183038">work_status</text>
  <text x="796" y="228" font-size="12" font-weight="700" fill="#183038">Datatype</text><rect x="796" y="240" width="300" height="45" rx="8" fill="#fbfcfb" stroke="#cad6d2"/><text x="812" y="268" font-size="14" fill="#183038">Keuzelijst</text><text x="1072" y="268" font-size="13" fill="#62757b">▼</text>
  <text x="104" y="326" font-size="12" font-weight="700" fill="#183038">Keuzes</text><rect x="104" y="338" width="992" height="45" rx="8" fill="#fbfcfb" stroke="#cad6d2"/><text x="120" y="366" font-size="14" fill="#183038">Ontvangen, In behandeling, Gereed</text><text x="104" y="402" font-size="11" fill="#62757b">Gescheiden door komma’s</text>
  <rect x="106" y="436" width="18" height="18" rx="4" fill="white" stroke="#9eafaa"/><text x="134" y="451" font-size="13" fill="#183038">Verplicht</text><rect x="272" y="436" width="18" height="18" rx="4" fill="white" stroke="#9eafaa"/><text x="300" y="451" font-size="13" fill="#183038">Doorzoekbaar</text><rect x="462" y="436" width="18" height="18" rx="4" fill="#247483"/><path d="M467 445l4 4 7-9" fill="none" stroke="white" stroke-width="2"/><text x="490" y="451" font-size="13" font-weight="700" fill="#183038">Filterbaar</text>
  <rect x="860" y="499" width="100" height="42" rx="9" fill="#eef3f1"/><text x="910" y="525" text-anchor="middle" font-size="13" fill="#183038">Annuleren</text><rect x="972" y="499" width="124" height="42" rx="9" fill="#247483"/><text x="1034" y="525" text-anchor="middle" font-size="13" font-weight="700" fill="white">Veld toevoegen</text></g>
  <rect x="72" y="594" width="1056" height="35" rx="8" fill="#e8f3f1"/><text x="90" y="617" font-family="Arial" font-size="12" fill="#174d58">Voorbeeld: dit veld verschijnt als keuzelijst op Werkstukken en als extra filter op de Entiteitenpagina.</text>
</svg>
